<?xml version="1.0" standalone="no"?>
<!DOCTYPE svg PUBLIC "-//W3C//DTD SVG 20010904//EN"
 "http://www.w3.org/TR/2001/REC-SVG-20010904/DTD/svg10.dtd">
<svg version="1.0" xmlns="http://www.w3.org/2000/svg"
 width="664.000000pt" height="317.000000pt" viewBox="0 0 664.000000 317.000000"
 preserveAspectRatio="xMidYMid meet">

<g transform="translate(0.000000,317.000000) scale(0.100000,-0.100000)"
fill="#000000" stroke="none">
<path d="M2097 2733 c-13 -3 -16 -10 -11 -26 6 -21 6 -22 -9 -2 -14 19 -16 19
-88 -10 -85 -34 -224 -125 -290 -188 l-47 -45 -73 24 c-95 31 -171 50 -233 58
-47 6 -48 6 -42 -19 4 -14 2 -25 -4 -25 -5 0 -10 12 -10 26 0 26 -1 27 -47 20
-158 -21 -258 -116 -292 -275 -16 -77 0 -174 27 -157 5 3 22 30 36 60 42 85
126 142 253 172 75 18 285 16 304 -3 6 -6 3 -24 -10 -55 -31 -73 -45 -188 -31
-267 14 -83 51 -164 91 -202 l31 -29 -27 -10 c-14 -5 -29 -10 -32 -10 -14 0
-133 -58 -180 -87 -169 -107 -285 -254 -344 -436 -29 -88 -36 -253 -16 -334
19 -73 65 -167 100 -204 119 -125 261 -181 461 -181 127 0 193 15 294 66 120
60 234 160 325 286 22 30 41 57 43 58 1 2 33 -8 70 -23 59 -23 72 -26 104 -16
42 12 120 76 120 97 0 9 4 13 9 10 11 -7 64 52 104 117 l31 51 16 -65 c38
-154 102 -212 231 -212 79 0 111 16 187 96 l51 54 28 -46 c43 -69 111 -102
208 -103 98 0 162 29 243 110 l60 60 59 -24 c64 -26 121 -31 145 -11 9 6 57
106 107 221 88 202 142 309 176 351 16 19 16 19 11 -15 -3 -19 -17 -105 -32
-190 -20 -114 -27 -191 -28 -290 -1 -179 17 -243 88 -316 61 -62 110 -79 200
-70 77 8 137 37 181 89 38 44 50 84 18 55 -29 -26 -114 -50 -150 -43 -79 15
-119 88 -129 235 -12 173 27 392 106 591 23 59 38 110 34 121 -22 71 -210 141
-280 105 -43 -23 -120 -182 -243 -504 -86 -226 -94 -240 -86 -150 14 143 92
430 141 514 13 23 35 50 49 61 32 25 32 45 0 71 -51 39 -150 46 -212 13 -47
-26 -104 -190 -168 -487 -19 -90 -35 -172 -35 -183 0 -31 -76 -139 -121 -172
-23 -16 -53 -30 -66 -30 -12 0 -23 -4 -23 -9 0 -6 -16 5 -36 23 -26 24 -38 46
-44 77 -19 100 37 340 146 621 23 59 13 73 -62 88 -49 10 -83 9 -137 -6 -46
-14 -132 -284 -162 -514 -11 -84 -90 -231 -142 -265 -21 -14 -24 -14 -43 5
-17 17 -20 33 -20 100 0 44 -4 80 -8 80 -5 0 -14 11 -20 25 -6 14 -8 25 -3 25
5 0 12 -8 16 -18 10 -28 20 -1 49 143 70 338 156 629 247 843 50 115 50 117
34 148 -18 34 -71 64 -112 64 -41 0 -112 -39 -128 -71 -21 -40 -108 -308 -130
-401 l-19 -78 -69 0 c-129 0 -280 -68 -365 -165 -34 -39 -40 -51 -30 -62 10
-12 9 -14 -7 -11 -22 4 -59 -45 -110 -149 -73 -148 -125 -357 -111 -445 6 -33
1 -44 -38 -95 -158 -208 -329 -317 -519 -330 -169 -12 -282 44 -347 171 -33
66 -35 74 -34 170 0 65 6 121 17 158 9 31 14 63 11 72 -5 12 -2 15 10 10 10
-4 16 -1 16 9 0 27 97 161 163 226 43 42 64 69 60 80 -4 13 -3 13 5 2 8 -12
15 -10 38 6 101 71 233 113 360 113 64 0 73 2 98 29 20 21 27 37 24 57 -3 26
-10 31 -63 47 -121 37 -149 51 -189 91 -64 64 -81 107 -81 206 0 59 6 100 19
135 10 28 20 51 21 53 1 1 44 -9 95 -22 255 -69 442 -51 545 52 67 67 90 118
89 197 0 57 -5 77 -26 110 -62 98 -143 136 -287 134 -47 -1 -94 -3 -104 -6z
m-139 -112 c3 -8 -1 -12 -9 -9 -7 2 -15 10 -17 17 -3 8 1 12 9 9 7 -2 15 -10
17 -17z m50 0 c3 -8 -1 -12 -9 -9 -7 2 -15 10 -17 17 -3 8 1 12 9 9 7 -2 15
-10 17 -17z m308 -46 c28 -8 61 -26 73 -39 20 -21 23 -33 19 -76 -9 -94 -85
-140 -229 -140 -117 0 -339 48 -339 73 0 23 98 99 175 137 118 58 212 72 301
45z m-376 -25 c0 -5 -2 -10 -4 -10 -3 0 -8 5 -11 10 -3 6 -1 10 4 10 6 0 11
-4 11 -10z m-780 -80 c0 -5 -4 -10 -10 -10 -5 0 -10 5 -10 10 0 6 5 10 10 10
6 0 10 -4 10 -10z m40 -16 c0 -14 -3 -14 -15 -4 -8 7 -15 14 -15 16 0 2 7 4
15 4 8 0 15 -7 15 -16z m-75 -54 c3 -5 1 -10 -4 -10 -6 0 -11 5 -11 10 0 6 2
10 4 10 3 0 8 -4 11 -10z m2116 -53 c-16 -16 -26 0 -10 19 9 11 15 12 17 4 2
-6 -1 -17 -7 -23z m-107 -28 c-3 -5 -10 -7 -15 -3 -5 3 -7 10 -3 15 3 5 10 7
15 3 5 -3 7 -10 3 -15z m46 -45 c0 -9 -5 -14 -12 -12 -18 6 -21 28 -4 28 9 0
16 -7 16 -16z m-1475 -14 c3 -5 -1 -10 -9 -10 -9 0 -16 5 -16 10 0 6 4 10 9
10 6 0 13 -4 16 -10z m-85 -24 c0 -8 -61 -12 -66 -4 -3 4 11 8 30 8 20 0 36
-2 36 -4z m1550 -26 c0 -5 -7 -10 -15 -10 -8 0 -15 5 -15 10 0 6 7 10 15 10 8
0 15 -4 15 -10z m-1560 -34 c0 -3 -4 -8 -10 -11 -5 -3 -10 -1 -10 4 0 6 5 11
10 11 6 0 10 -2 10 -4z m1544 -17 c-3 -5 -10 -7 -15 -3 -5 3 -7 10 -3 15 3 5
10 7 15 3 5 -3 7 -10 3 -15z m-99 -9 c3 -5 1 -10 -4 -10 -6 0 -11 5 -11 10 0
6 2 10 4 10 3 0 8 -4 11 -10z m125 -27 c0 -26 -1 -26 -14 -8 -14 20 -12 35 5
35 5 0 9 -12 9 -27z m-1508 -25 c-7 -7 -12 -8 -12 -2 0 6 3 14 7 17 3 4 9 5
12 2 2 -3 -1 -11 -7 -17z m1378 2 c0 -5 -4 -10 -10 -10 -5 0 -10 5 -10 10 0 6
5 10 10 10 6 0 10 -4 10 -10z m-1400 -10 c0 -12 -40 -33 -48 -25 -4 4 2 13 12
21 23 16 36 18 36 4z m1468 -9 c3 -8 -1 -12 -9 -9 -7 2 -15 10 -17 17 -3 8 1
12 9 9 7 -2 15 -10 17 -17z m50 -21 c3 -21 2 -22 -12 -11 -19 16 -21 44 -3 39
6 -3 14 -15 15 -28z m-108 -20 c24 0 27 -25 4 -34 -11 -4 -18 1 -21 14 -3 11
-9 20 -14 20 -5 0 -9 8 -9 18 1 16 1 16 11 0 5 -10 19 -18 29 -18z m80 8 c0
-2 -6 -20 -14 -42 -13 -38 -13 -38 -20 -11 -7 26 7 55 25 55 5 0 9 -1 9 -2z
m-1540 -28 c0 -5 -4 -10 -10 -10 -5 0 -10 5 -10 10 0 6 5 10 10 10 6 0 10 -4
10 -10z m100 -14 c0 -3 -4 -8 -10 -11 -5 -3 -10 -1 -10 4 0 6 5 11 10 11 6 0
10 -2 10 -4z m-20 -36 c0 -5 -4 -10 -10 -10 -5 0 -10 5 -10 10 0 6 5 10 10 10
6 0 10 -4 10 -10z m1350 -5 c0 -8 -4 -15 -9 -15 -13 0 -22 16 -14 24 11 11 23
6 23 -9z m70 -27 c0 -4 -4 -8 -10 -8 -5 0 -10 7 -10 15 0 8 -5 15 -11 15 -5 0
-7 5 -3 12 5 7 11 5 21 -7 7 -11 13 -22 13 -27z m-115 13 c3 -5 1 -12 -5 -16
-5 -3 -10 1 -10 9 0 18 6 21 15 7z m85 -81 c0 -5 -2 -10 -4 -10 -3 0 -8 5 -11
10 -3 6 -1 10 4 10 6 0 11 -4 11 -10z m-1343 -25 c-4 -8 -12 -15 -19 -14 -10
0 -10 2 0 6 6 2 12 12 12 21 0 8 3 13 6 9 4 -3 4 -13 1 -22z m1158 -45 c8 -13
-41 -197 -77 -290 -42 -107 -120 -252 -184 -343 -81 -114 -159 -164 -194 -122
-34 41 36 300 135 500 57 115 135 209 207 248 35 18 103 23 113 7z m1015 -20
c0 -5 -4 -10 -10 -10 -5 0 -10 5 -10 10 0 6 5 10 10 10 6 0 10 -4 10 -10z
m100 -20 c0 -5 -16 -10 -35 -10 -19 0 -35 5 -35 10 0 6 16 10 35 10 19 0 35
-4 35 -10z m-125 -9 c3 -5 1 -12 -5 -16 -5 -3 -10 1 -10 9 0 18 6 21 15 7z
m-1315 -52 c0 -5 -4 -9 -10 -9 -5 0 -10 7 -10 16 0 8 5 12 10 9 6 -3 10 -10
10 -16z m-1000 -35 c0 -8 -4 -12 -10 -9 -5 3 -10 13 -10 21 0 8 5 12 10 9 6
-3 10 -13 10 -21z m1900 -14 c0 -5 -5 -10 -11 -10 -5 0 -7 5 -4 10 3 6 8 10
11 10 2 0 4 -4 4 -10z m443 -23 c-8 -28 -33 -66 -33 -49 0 9 -7 11 -20 7 -29
-9 -25 3 13 40 35 36 48 37 40 2z m45 2 c-3 -8 -7 -3 -11 10 -4 17 -3 21 5 13
5 -5 8 -16 6 -23z m-2448 11 c0 -5 -4 -10 -10 -10 -5 0 -10 5 -10 10 0 6 5 10
10 10 6 0 10 -4 10 -10z m1090 0 c0 -5 -4 -10 -10 -10 -5 0 -10 5 -10 10 0 6
5 10 10 10 6 0 10 -4 10 -10z m-978 -22 c-12 -12 -35 -1 -27 12 3 5 13 6 21 3
10 -4 12 -9 6 -15z m2238 12 c0 -5 -4 -10 -10 -10 -5 0 -10 5 -10 10 0 6 5 10
10 10 6 0 10 -4 10 -10z m-475 -10 c3 -5 1 -10 -4 -10 -6 0 -11 5 -11 10 0 6
2 10 4 10 3 0 8 -4 11 -10z m995 0 c0 -5 -4 -10 -10 -10 -5 0 -10 5 -10 10 0
6 5 10 10 10 6 0 10 -4 10 -10z m-1910 -15 c0 -8 -4 -15 -10 -15 -5 0 -10 7
-10 15 0 8 5 15 10 15 6 0 10 -7 10 -15z m110 -6 c0 -6 -4 -7 -10 -4 -5 3 -10
11 -10 16 0 6 5 7 10 4 6 -3 10 -11 10 -16z m1408 -11 c-6 -18 -28 -21 -28 -4
0 9 7 16 16 16 9 0 14 -5 12 -12z m298 -15 c-10 -10 -19 5 -10 18 6 11 8 11
12 0 2 -7 1 -15 -2 -18z m-866 7 c0 -5 -4 -10 -10 -10 -5 0 -10 5 -10 10 0 6
5 10 10 10 6 0 10 -4 10 -10z m-1960 -31 c0 -6 -7 -8 -16 -5 -9 3 -18 6 -20 6
-2 0 -4 7 -4 15 0 13 4 14 20 5 11 -6 20 -16 20 -21z m1057 -1 c-3 -8 -6 -5
-6 6 -1 11 2 17 5 13 3 -3 4 -12 1 -19z m-1133 -9 c-3 -5 -10 -7 -15 -3 -5 3
-7 10 -3 15 3 5 10 7 15 3 5 -3 7 -10 3 -15z m1074 12 c11 -7 11 -9 -1 -14
-16 -6 -27 0 -27 15 0 10 11 10 28 -1z m959 -37 c-9 -9 -28 6 -21 18 4 6 10 6
17 -1 6 -6 8 -13 4 -17z m-497 6 c0 -5 -4 -10 -10 -10 -5 0 -10 5 -10 10 0 6
5 10 10 10 6 0 10 -4 10 -10z m1475 -9 c3 -5 1 -12 -5 -16 -5 -3 -10 1 -10 9
0 18 6 21 15 7z m-3025 -11 c0 -5 -4 -10 -10 -10 -5 0 -10 5 -10 10 0 6 5 10
10 10 6 0 10 -4 10 -10z m1067 -22 c-3 -7 -5 -2 -5 12 0 14 2 19 5 13 2 -7 2
-19 0 -25z m1853 17 c0 -8 -7 -15 -15 -15 -8 0 -15 7 -15 15 0 8 7 15 15 15 8
0 15 -7 15 -15z m-1795 -5 c-3 -5 -10 -10 -16 -10 -5 0 -9 5 -9 10 0 6 7 10
16 10 8 0 12 -4 9 -10z m489 -15 c3 -9 0 -15 -9 -15 -16 0 -27 14 -18 24 10
10 21 7 27 -9z m446 -5 c0 -5 -4 -10 -10 -10 -5 0 -10 5 -10 10 0 6 5 10 10
10 6 0 10 -4 10 -10z m900 -35 c0 -16 -27 -28 -35 -15 -3 4 -2 15 1 23 7 18
34 11 34 -8z m-2940 5 c0 -5 -7 -10 -15 -10 -8 0 -15 5 -15 10 0 6 7 10 15 10
8 0 15 -4 15 -10z m1100 0 c0 -5 -7 -10 -16 -10 -8 0 -12 5 -9 10 3 6 10 10
16 10 5 0 9 -4 9 -10z m490 -10 c0 -5 -7 -10 -15 -10 -8 0 -15 5 -15 10 0 6 7
10 15 10 8 0 15 -4 15 -10z m1300 -20 c0 -5 -5 -10 -11 -10 -5 0 -7 5 -4 10 3
6 8 10 11 10 2 0 4 -4 4 -10z m-2920 -30 c0 -5 -4 -10 -10 -10 -5 0 -10 5 -10
10 0 6 5 10 10 10 6 0 10 -4 10 -10z m1640 -20 c0 -5 -4 -10 -10 -10 -5 0 -10
5 -10 10 0 6 5 10 10 10 6 0 10 -4 10 -10z m410 -33 c0 -5 -4 -5 -10 -2 -5 3
-10 14 -10 23 0 15 2 15 10 2 5 -8 10 -19 10 -23z m854 18 c3 -9 0 -15 -9 -15
-8 0 -15 7 -15 15 0 8 4 15 9 15 5 0 11 -7 15 -15z m46 5 c0 -5 -4 -10 -10
-10 -5 0 -10 5 -10 10 0 6 5 10 10 10 6 0 10 -4 10 -10z m-3120 -4 c0 -11 -19
-15 -25 -6 -3 5 1 10 9 10 9 0 16 -2 16 -4z m38 -25 c3 -8 -1 -12 -9 -9 -7 2
-15 10 -17 17 -3 8 1 12 9 9 7 -2 15 -10 17 -17z m1687 9 c3 -5 1 -10 -4 -10
-6 0 -11 5 -11 10 0 6 2 10 4 10 3 0 8 -4 11 -10z m985 -6 c0 -8 -5 -12 -10
-9 -6 4 -8 11 -5 16 9 14 15 11 15 -7z m450 1 c-7 -8 -17 -12 -22 -9 -6 4 -5
10 3 15 22 14 33 10 19 -6z m-3056 -10 c-4 -8 -10 -15 -15 -15 -5 0 -9 7 -9
15 0 8 7 15 15 15 9 0 12 -6 9 -15z m2086 -22 c0 -20 -3 -24 -11 -16 -7 7 -9
19 -6 27 10 24 17 19 17 -11z m-30 7 c0 -5 -4 -10 -10 -10 -5 0 -10 5 -10 10
0 6 5 10 10 10 6 0 10 -4 10 -10z m960 -12 c0 -10 3 -9 9 1 6 10 10 10 16 1
13 -21 -20 -43 -54 -35 -37 8 -39 18 -8 33 30 14 37 14 37 0z m-443 -30 c-3
-8 -6 -5 -6 6 -1 11 2 17 5 13 3 -3 4 -12 1 -19z m-2667 2 c0 -5 -7 -10 -15
-10 -8 0 -15 5 -15 10 0 6 7 10 15 10 8 0 15 -4 15 -10z m2155 -11 c11 -17 -1
-21 -15 -4 -8 9 -8 15 -2 15 6 0 14 -5 17 -11z m545 2 c0 -6 -4 -13 -10 -16
-5 -3 -10 1 -10 9 0 9 5 16 10 16 6 0 10 -4 10 -9z m-946 -48 c-9 -36 -13 -40
-24 -24 -5 9 -3 22 3 33 17 27 28 22 21 -9z m-54 4 c0 -20 -9 -25 -31 -20 -33
9 -21 25 24 32 4 0 7 -5 7 -12z m1420 3 c0 -12 -28 -25 -36 -17 -9 9 6 27 22
27 8 0 14 -5 14 -10z m-3110 -61 c0 -5 -11 -9 -25 -9 -26 0 -34 15 -12 23 16
5 37 -3 37 -14z m1650 11 c0 -5 -4 -10 -10 -10 -5 0 -10 5 -10 10 0 6 5 10 10
10 6 0 10 -4 10 -10z m1430 -5 c0 -8 -4 -15 -10 -15 -5 0 -10 7 -10 15 0 8 5
15 10 15 6 0 10 -7 10 -15z m-1360 -15 c0 -5 -4 -10 -10 -10 -5 0 -10 5 -10
10 0 6 5 10 10 10 6 0 10 -4 10 -10z m-120 -10 c0 -5 -4 -10 -10 -10 -5 0 -10
5 -10 10 0 6 5 10 10 10 6 0 10 -4 10 -10z m-1670 -30 c0 -5 -5 -10 -11 -10
-5 0 -7 5 -4 10 3 6 8 10 11 10 2 0 4 -4 4 -10z m1490 -5 c0 -8 -4 -15 -9 -15
-13 0 -22 16 -14 24 11 11 23 6 23 -9z m316 -12 c-10 -10 -19 5 -10 18 6 11 8
11 12 0 2 -7 1 -15 -2 -18z m-38 -15 c-6 -18 -28 -21 -28 -4 0 9 7 16 16 16 9
0 14 -5 12 -12z m-308 -18 c0 -5 -4 -10 -10 -10 -5 0 -10 5 -10 10 0 6 5 10
10 10 6 0 10 -4 10 -10z m260 -5 c0 -8 -4 -15 -10 -15 -5 0 -10 7 -10 15 0 8
5 15 10 15 6 0 10 -7 10 -15z m1370 -5 c0 -5 -2 -10 -4 -10 -3 0 -8 5 -11 10
-3 6 -1 10 4 10 6 0 11 -4 11 -10z m-3018 -25 c0 -5 -5 -11 -11 -13 -6 -2 -11
4 -11 13 0 9 5 15 11 13 6 -2 11 -8 11 -13z m1200 -7 c-7 -7 -12 -8 -12 -2 0
14 12 26 19 19 2 -3 -1 -11 -7 -17z m128 -8 c0 -5 -4 -10 -10 -10 -5 0 -10 5
-10 10 0 6 5 10 10 10 6 0 10 -4 10 -10z m-60 -16 c0 -8 -4 -12 -10 -9 -5 3
-10 10 -10 16 0 5 5 9 10 9 6 0 10 -7 10 -16z m-1260 -29 c0 -8 -2 -15 -4 -15
-2 0 -6 7 -10 15 -3 8 -1 15 4 15 6 0 10 -7 10 -15z m1135 6 c3 -5 1 -12 -5
-16 -5 -3 -10 1 -10 9 0 18 6 21 15 7z m1165 -17 c0 -16 -16 -19 -25 -4 -8 13
4 32 16 25 5 -4 9 -13 9 -21z m50 6 c0 -5 -4 -10 -10 -10 -5 0 -10 5 -10 10 0
6 5 10 10 10 6 0 10 -4 10 -10z m-190 -10 c0 -5 -4 -10 -10 -10 -5 0 -10 5
-10 10 0 6 5 10 10 10 6 0 10 -4 10 -10z m53 -16 c-3 -8 -9 -14 -13 -14 -13 0
-22 19 -15 30 9 14 34 0 28 -16z m920 -32 c-11 -19 -42 -23 -45 -7 -2 6 7 14
20 20 23 10 30 25 11 25 -5 0 -7 5 -3 12 5 8 11 4 18 -11 7 -16 6 -28 -1 -39z
m-73 28 c0 -5 -4 -10 -10 -10 -5 0 -10 5 -10 10 0 6 5 10 10 10 6 0 10 -4 10
-10z m-3070 -60 c0 -5 -4 -10 -10 -10 -5 0 -10 5 -10 10 0 6 5 10 10 10 6 0
10 -4 10 -10z m3165 1 c3 -5 1 -12 -5 -16 -5 -3 -10 1 -10 9 0 18 6 21 15 7z
m5 -51 c0 -5 -2 -10 -4 -10 -3 0 -8 5 -11 10 -3 6 -1 10 4 10 6 0 11 -4 11
-10z"/>
<path d="M3552 2345 c-39 -17 -77 -57 -105 -110 -29 -56 -30 -176 -1 -225 32
-56 60 -49 112 30 23 36 63 89 90 119 86 98 107 167 57 189 -35 16 -113 14
-153 -3z m-17 -55 c3 -5 -1 -10 -9 -10 -9 0 -16 5 -16 10 0 6 4 10 9 10 6 0
13 -4 16 -10z m65 -14 c0 -12 -10 -14 -38 -7 -2 1 0 6 3 11 9 15 35 12 35 -4z
m-80 -16 c0 -5 -4 -10 -10 -10 -5 0 -10 5 -10 10 0 6 5 10 10 10 6 0 10 -4 10
-10z m20 -106 c0 -14 -4 -23 -9 -19 -5 3 -12 1 -16 -5 -12 -19 -25 -10 -25 18
0 21 2 24 10 12 9 -13 12 -13 21 3 14 24 19 21 19 -9z m60 -30 c0 -8 -5 -12
-10 -9 -6 4 -8 11 -5 16 9 14 15 11 15 -7z"/>
<path d="M5007 1875 c-166 -46 -276 -153 -389 -380 -80 -160 -124 -325 -115
-427 7 -74 32 -104 120 -144 81 -36 133 -36 187 0 46 30 124 132 169 219 l30
58 6 -38 c22 -128 56 -196 119 -237 34 -22 52 -26 111 -26 86 0 133 20 196 83
56 57 135 207 182 347 51 155 52 159 23 170 -13 5 -37 5 -53 1 -25 -6 -31 -17
-56 -91 -90 -276 -197 -435 -254 -378 -37 38 -21 202 38 382 40 122 38 146
-12 171 -56 29 -148 13 -205 -37 -34 -30 -56 -64 -169 -268 -76 -138 -102
-178 -144 -222 -45 -48 -71 -50 -72 -5 -3 97 26 198 111 389 87 195 165 300
257 343 71 34 148 -4 160 -78 7 -43 25 -67 53 -67 57 0 68 135 17 188 -55 58
-195 79 -310 47z m32 -66 c-16 -10 -23 -4 -14 10 3 6 11 8 17 5 6 -4 5 -9 -3
-15z m-39 -19 c0 -5 -4 -10 -10 -10 -5 0 -10 5 -10 10 0 6 5 10 10 10 6 0 10
-4 10 -10z m-94 -35 c-8 -8 -18 -15 -22 -15 -3 0 -1 7 6 15 7 8 17 15 22 15 5
0 3 -7 -6 -15z m-66 1 c0 -3 -4 -8 -10 -11 -5 -3 -10 -1 -10 4 0 6 5 11 10 11
6 0 10 -2 10 -4z m0 -56 c0 -5 -7 -10 -16 -10 -8 0 -12 5 -9 10 3 6 10 10 16
10 5 0 9 -4 9 -10z m-49 -63 c-13 -13 -26 -3 -16 12 3 6 11 8 17 5 6 -4 6 -10
-1 -17z m-31 -63 c0 -8 -5 -12 -10 -9 -6 4 -8 11 -5 16 9 14 15 11 15 -7z
m410 -244 c0 -5 -5 -10 -11 -10 -5 0 -7 5 -4 10 3 6 8 10 11 10 2 0 4 -4 4
-10z m-39 -23 c-1 -12 -15 -9 -19 4 -3 6 1 10 8 8 6 -3 11 -8 11 -12z m79 -20
c0 -7 -9 -13 -20 -14 -11 -1 -20 4 -20 13 0 8 9 14 20 14 11 0 20 -6 20 -13z
m-79 -17 c5 0 9 -6 9 -14 0 -11 -5 -12 -25 -3 -27 13 -35 33 -9 23 9 -3 20 -6
25 -6z m-464 -52 c-3 -8 -6 -5 -6 6 -1 11 2 17 5 13 3 -3 4 -12 1 -19z m418
12 c3 -5 1 -10 -4 -10 -6 0 -11 5 -11 10 0 6 2 10 4 10 3 0 8 -4 11 -10z
m-443 -52 c-7 -7 -12 -8 -12 -2 0 14 12 26 19 19 2 -3 -1 -11 -7 -17z m-25
-47 c3 -33 2 -34 -15 -17 -17 15 -20 15 -32 1 -26 -31 -31 -13 -14 43 2 8 15
12 30 10 22 -2 27 -9 31 -37z m43 29 c0 -5 -5 -10 -11 -10 -5 0 -7 5 -4 10 3
6 8 10 11 10 2 0 4 -4 4 -10z m482 -30 c-3 -21 -9 -30 -18 -26 -8 3 -14 -1
-14 -9 0 -8 -9 -15 -20 -15 -27 0 -25 16 5 36 13 9 27 24 30 35 10 30 22 14
17 -21z m48 30 c0 -5 -2 -10 -4 -10 -3 0 -8 5 -11 10 -3 6 -1 10 4 10 6 0 11
-4 11 -10z m22 -85 c-12 -22 -27 -2 -18 22 5 12 10 13 17 6 7 -7 8 -17 1 -28z
m-642 -20 c0 -16 -6 -25 -15 -25 -28 0 -18 40 13 49 1 1 2 -10 2 -24z m551 -2
c-12 -20 -14 -14 -5 12 4 9 9 14 11 11 3 -2 0 -13 -6 -23z m-431 -23 c0 -5 -4
-10 -10 -10 -5 0 -10 5 -10 10 0 6 5 10 10 10 6 0 10 -4 10 -10z"/>
</g>
</svg>
